<?xml version="1.0" encoding="utf-8"?>
<!-- Generator: Adobe Illustrator 16.0.0, SVG Export Plug-In . SVG Version: 6.00 Build 0)  -->
<!DOCTYPE svg PUBLIC "-//W3C//DTD SVG 1.1//EN" "http://www.w3.org/Graphics/SVG/1.1/DTD/svg11.dtd">
<svg version="1.1" id="Layer_1" xmlns="http://www.w3.org/2000/svg" xmlns:xlink="http://www.w3.org/1999/xlink" x="0px" y="0px"
	 width="158px" height="38px" viewBox="0 0 158 38" enable-background="new 0 0 158 38" xml:space="preserve">
<title>繁体logo字+5</title>
<desc>Created with Sketch.</desc>
<g id="Group-2">
	<path id="Fill-59" fill="#095ECC" d="M2.781,0.831h32.316c1.215,0,2.199,0.984,2.199,2.198v32.315c0,1.215-0.984,2.199-2.199,2.199
		H2.781c-1.214,0-2.198-0.984-2.198-2.199V3.029C0.583,1.815,1.567,0.831,2.781,0.831"/>
	<path id="Combined-Shape" fill="#FFFFFF" d="M30.305,13.066h-2.334v0.003H17.126c-2.491,0-4.303,2.027-4.303,4.476v11.55v1.455
		c0,0.482-0.391,0.873-0.875,0.873h-4.37c-0.484,0-0.874-0.391-0.874-0.873v-1.455c0,0-0.002-5.428-0.002-12.616
		c0-5.729,4.082-9.529,9.669-9.529h9.212c0.019-0.002,0.04-0.004,0.059-0.004h4.663c0.483,0,0.874,0.392,0.874,0.875v4.371
		C31.179,12.675,30.788,13.066,30.305,13.066z M19.815,19.185h4.371c0.483,0,0.874,0.392,0.874,0.875v4.369
		c0,0.484-0.391,0.875-0.874,0.875h-4.371c-0.483,0-0.874-0.391-0.874-0.875v-4.369C18.941,19.577,19.332,19.185,19.815,19.185z"/>
</g>
<g>
	<path fill="#353741" d="M66.013,8.231h-1.357h-0.728H52.566h-0.103h-1.982c-0.287,0-0.521,0.233-0.521,0.521V12.4
		c0,0.288,0.234,0.521,0.521,0.521h1.982h0.103h11.362h0.728h1.357c0.287,0,0.521-0.233,0.521-0.521V8.752
		C66.534,8.464,66.3,8.231,66.013,8.231z M63.407,11.358H53.088V9.794h10.319V11.358z"/>
	<path fill="#353741" d="M98.674,23.24H80.017v1.562h18.657h0.104c0.749,0,1.356-0.606,1.356-1.354V23.24h-1.356H98.674z"/>
	<path fill="#353741" d="M66.534,5.625c0-0.288-0.234-0.521-0.521-0.521H50.377c-0.287,0-0.521,0.233-0.521,0.521v0.521
		c0,0.287,0.234,0.522,0.521,0.522h15.636c0.287,0,0.521-0.235,0.521-0.522V5.625z"/>
	<path fill="#353741" d="M78.66,20.268c0.001-0.016,0.001-0.033,0.001-0.051V8.959H79.6c0.289,0,0.521-0.233,0.521-0.521v-0.52
		c0-0.288-0.232-0.521-0.521-0.521h-5.003c-0.288,0-0.521,0.233-0.521,0.521v0.52c0,0.288,0.233,0.521,0.521,0.521h0.938v11.258
		c0,0.792-0.077,2.243-0.733,2.794c-0.315,0.267-0.726,0.451-0.726,0.972v0.82c1.053,0,2.141-0.347,2.994-1.039
		c0.828,0.692,1.893,1.039,2.946,1.039c0,0-0.002-1.48-0.002-1.562C78.813,23.24,78.664,21.279,78.66,20.268z"/>
	<path fill="#353741" d="M70.704,2.185h-2.085h-0.001H60.8c0-0.748-0.606-1.354-1.354-1.354h-3.335
		c-0.289,0-0.522,0.233-0.522,0.521v0.833h-7.818h-2.084c-0.287,0-0.522,0.233-0.522,0.521v5.212c0,0.288,0.235,0.521,0.522,0.521
		h2.084c0.288,0,0.521-0.233,0.521-0.521v-4.17h19.805v4.691h0.512c1.444,0,2.613-1.17,2.613-2.613v-3.12
		C71.222,2.418,70.991,2.185,70.704,2.185z"/>
	<path fill="#353741" d="M107.049,4.791h2.086c0.288,0,0.521-0.233,0.521-0.521V4.061c0-1.439-1.168-2.604-2.607-2.604h-2.085
		c-0.287,0-0.521,0.233-0.521,0.52v0.209C104.443,3.625,105.611,4.791,107.049,4.791z"/>
	<path fill="#353741" d="M76.681,5.729h2.085c0.288,0,0.521-0.233,0.521-0.52V5c0-1.44-1.167-2.607-2.606-2.607h-2.085
		c-0.288,0-0.521,0.233-0.521,0.522v0.208C74.075,4.562,75.242,5.729,76.681,5.729z"/>
	<path fill="#353741" d="M69.659,14.484h-2.543c-0.029,0-0.051,0.02-0.058,0.046c-0.066-0.029-0.137-0.046-0.211-0.046h-7.609
		h-2.085h-8.339h-1.043h-1.04c-0.289,0-0.523,0.234-0.523,0.522v9.276c0,0.286,0.234,0.521,0.523,0.521h2.604h17.72v-0.059
		c0,0.033,0.026,0.059,0.059,0.059h0.461c1.44,0,2.607-1.166,2.607-2.604v-7.192C70.182,14.718,69.948,14.484,69.659,14.484z
		 M56.632,23.24h-7.297v-2.815h7.297V23.24z M56.632,18.862h-7.297v-2.814h7.297V18.862z M67.055,23.24h-7.297v-2.814h7.089
		c0.073,0,0.144-0.016,0.208-0.044V23.24z M67.055,18.906c-0.064-0.028-0.135-0.044-0.208-0.044h-7.089v-2.814h7.089
		c0.073,0,0.144-0.016,0.208-0.043V18.906z"/>
	<path fill="#353741" d="M110.803,5.729h-7.296c-0.288,0-0.521,0.234-0.521,0.522v0.521c0,0.288,0.233,0.521,0.521,0.521h7.296
		c0.287,0,0.521-0.233,0.521-0.521V6.25C111.324,5.962,111.09,5.729,110.803,5.729z"/>
	<path fill="#353741" d="M110.803,8.856h-7.296c-0.288,0-0.521,0.234-0.521,0.52v0.521c0,0.288,0.233,0.522,0.521,0.522h7.296
		c0.287,0,0.521-0.234,0.521-0.522V9.376C111.324,9.09,111.09,8.856,110.803,8.856z"/>
	<path fill="#353741" d="M84.291,21.693c0.811-2.012,3.023-7.313,3.023-7.313H85.02c-0.414,0-1.007,0.218-1.242,0.735
		c-1.026,2.241-2.927,7.082-2.927,7.082h2.712C84.015,22.197,84.222,21.866,84.291,21.693z"/>
	<path fill="#353741" d="M128.562,2.185h-4.102c-0.002-0.069-0.004-0.138-0.004-0.208c0-0.289-0.234-0.521-0.521-0.521h-2.189
		c-0.287,0-0.521,0.154-0.521,0.521c0,2.555,0.808,4.943,1.964,6.879h-4.97c1.155-1.936,1.964-4.324,1.964-6.88
		c0-0.366-0.234-0.52-0.521-0.52h-1.043h-1.146h-4.588c-0.287,0-0.519,0.233-0.519,0.52v0.522c0,0.288,0.231,0.522,0.519,0.522
		h4.024c-0.076,0.964-0.254,1.871-0.498,2.709h-3.629c-0.23,0-0.416,0.233-0.416,0.521v0.521c0,0.288,0.186,0.522,0.416,0.522h3.072
		c-0.898,2.126-2.136,3.635-2.863,4.279c-0.215,0.191-0.625,0.484-0.625,1.14v0.835c0.625,0,1.342-0.245,2.084-0.688v5.215
		c0,0.263,0.232,0.476,0.521,0.476h2.085h7.191c0.019,0,0.035-0.002,0.053-0.003c0.017,0.001,0.035,0.003,0.052,0.003h2.084
		c0.287,0,0.521-0.234,0.521-0.522v-5.169c0.742,0.443,1.461,0.688,2.086,0.688v-0.834c0-0.657-0.412-0.95-0.629-1.141
		c-0.726-0.644-1.965-2.153-2.863-4.279h3.074c0.231,0,0.418-0.234,0.418-0.522V6.25c0-0.288-0.187-0.521-0.418-0.521h-3.629
		c-0.182-0.623-0.324-1.286-0.418-1.981h3.984c0.266,0,0.48-0.233,0.48-0.52V2.706C129.043,2.418,128.828,2.185,128.562,2.185z
		 M123.832,16.986h-6.254v-3.44h6.254V16.986z M125.763,11.983h-1.41c-0.017,0-0.035,0.001-0.052,0.003
		c-0.018-0.002-0.034-0.003-0.053-0.003h-7.191h-0.104h-1.308c0.515-0.446,1.022-0.976,1.502-1.577
		c0.037,0.008,0.076,0.014,0.117,0.014h7.008C124.748,11.015,125.252,11.541,125.763,11.983z"/>
	<path fill="#353741" d="M157.432,6.876c0.287,0,0.52-0.233,0.52-0.521V5.833c0-0.287-0.232-0.521-0.52-0.521h-2.48
		c0.766-1.662,1.438-3.127,1.438-3.127h-2.295c-0.414,0-1.006,0.218-1.242,0.735c-0.424,0.93-0.803,1.749-1.101,2.392h-5.95
		c0.448-1.32,0.686-2.666,0.686-3.96c0-0.367-0.232-0.521-0.52-0.521h-2.086c-0.287,0-0.521,0.232-0.521,0.521
		c0,1.341-0.238,2.682-0.689,3.96h-4.664c-0.281-0.658-0.627-1.481-1.013-2.392c-0.222-0.524-0.827-0.735-1.243-0.735h-2.293
		c0,0,0.654,1.48,1.338,3.127h-2.38c-0.286,0-0.521,0.234-0.521,0.521v0.522c0,0.288,0.234,0.521,0.521,0.521h3.544h2.711h3.325
		c-0.476,0.928-1.069,1.805-1.769,2.606h-7.812c-0.286,0-0.521,0.233-0.521,0.521v0.521c0,0.289,0.234,0.521,0.521,0.521h6.185
		c-1.627,1.31-3.617,2.265-5.893,2.674c-0.318,0.024-0.812,0.277-0.812,0.766v0.833c4.279,0,7.81-1.749,10.328-4.273h5.401
		c2.519,2.524,6.05,4.273,10.327,4.273v-0.833c0-0.489-0.494-0.742-0.812-0.766c-2.275-0.409-4.267-1.364-5.894-2.674h6.187
		c0.287,0,0.52-0.232,0.52-0.521v-0.521c0-0.288-0.232-0.521-0.52-0.521h-13.85c0.624-0.826,1.151-1.703,1.582-2.606H157.432z"/>
	<path fill="#353741" d="M156.91,15.84h-23.975c-0.287,0-0.521,0.233-0.521,0.521v0.522c0,0.286,0.233,0.52,0.521,0.52h2.59
		c-1.104,2.489-3.11,7.4-3.11,7.4h2.71c0.454,0,0.661-0.331,0.73-0.504c0.582-1.441,2.093-4.993,2.904-6.896h15.545v4.482
		c0,0.854-0.42,1.355-0.939,1.355h-6.148v0.104c0,0.807,0.652,1.459,1.459,1.459h4.689h0.939h1.668c0.5,0,1.459-0.296,1.459-1.98
		v-5.939v-0.418v-0.104C157.432,16.073,157.197,15.84,156.91,15.84z"/>
	<path fill="#353741" d="M128.521,23.24h-2.594c0.754-1.844,1.552-3.648,1.552-3.648h-2.293c-0.416,0-1.022,0.211-1.242,0.734
		c-0.495,1.172-0.931,2.199-1.233,2.914h-4.013c-0.304-0.715-0.739-1.742-1.233-2.914c-0.22-0.523-0.828-0.734-1.242-0.734h-2.293
		c0,0,0.797,1.805,1.553,3.648h-2.598c-0.285,0-0.519,0.232-0.519,0.521v0.521c0,0.287,0.233,0.521,0.519,0.521h15.637
		c0.287,0,0.521-0.233,0.521-0.521v-0.521C129.043,23.473,128.809,23.24,128.521,23.24z"/>
	<path fill="#353741" d="M95.443,1.456h-2.294h-5.836H85.02c-0.414,0-1.006,0.218-1.242,0.734c-1.025,2.241-3.447,8.334-3.447,8.334
		h2.709c0.454,0,0.661-0.331,0.731-0.504c0.229-0.569,0.61-1.498,1.042-2.54v0.021h3.855v4.066h-7.295
		c-0.289,0-0.522,0.233-0.522,0.521v0.521c0,0.287,0.233,0.521,0.522,0.521h7.295v6.577c0,0.854-0.418,1.449-0.938,1.449
		c-0.288,0-0.521,0.232-0.521,0.521c0,0.287,0.232,0.521,0.521,0.521h2.711c0.5,0,1.354-0.297,1.354-1.98V13.13h7.295
		c0.289,0,0.522-0.234,0.522-0.521v-0.521c0-0.288-0.233-0.521-0.522-0.521h-7.295V7.501h3.855V7.48
		c0.432,1.042,0.814,1.971,1.043,2.54c0.068,0.173,0.275,0.504,0.73,0.504h2.711c0,0-2.424-6.093-3.449-8.334
		C96.45,1.674,95.858,1.456,95.443,1.456z M85.449,5.938c0.438-1.055,0.872-2.101,1.213-2.918h7.139
		c0.341,0.817,0.775,1.863,1.211,2.918H85.449z"/>
	<path fill="#353741" d="M96.902,22.197h2.711c0,0-1.902-4.842-2.928-7.082c-0.236-0.518-0.828-0.735-1.242-0.735h-2.294
		c0,0,2.21,5.3,3.022,7.312C96.242,21.867,96.449,22.197,96.902,22.197z"/>
	<path fill="#353741" d="M110.803,11.983h-7.296c-0.288,0-0.521,0.233-0.521,0.521v0.521c0,0.288,0.233,0.522,0.521,0.522h7.296
		c0.287,0,0.521-0.234,0.521-0.522v-0.521C111.324,12.216,111.09,11.983,110.803,11.983z"/>
	<path fill="#353741" d="M110.803,15.11h-7.296c-0.289,0-0.522,0.233-0.522,0.521v0.417v0.104v8.13c0,0.286,0.233,0.521,0.522,0.521
		h2.084h0.521h2.397v-0.037c0.06,0.024,0.123,0.037,0.191,0.037h0.104c1.391,0,2.52-1.127,2.52-2.519v-6.132v-0.104v-0.417
		C111.324,15.343,111.09,15.11,110.803,15.11z M108.197,23.24h-2.086v-6.567h2.086V23.24z"/>
</g>
<path id="Combined-Shape_2_" fill="#095ECC" d="M87.758,32.846v0.079c0,0.604-0.49,1.095-1.096,1.095h-4.385v0.651v0.054v0.547
	c0,1.256-1.016,2.271-2.269,2.271h-0.081v-5.715c0-1.6,1.297-2.897,2.898-2.897h4.932v0.08c0,0.604-0.49,1.095-1.096,1.095h-0.236
	h-1.271h-1.153v0.004c-0.013-0.002-0.026-0.004-0.042-0.004c-0.928,0-1.682,0.754-1.682,1.684c0,0.013,0.002,0.025,0.002,0.039
	h-0.002v1.018H87.758z M96.76,37.543h-4.539c-1.601,0-2.897-1.297-2.897-2.896v-5.324c0-0.215,0.176-0.391,0.392-0.391h1.564
	c0.217,0,0.393,0.176,0.393,0.391v2.426v0.054v2.845h0.002c0,0.014-0.002,0.025-0.002,0.039c0,0.93,0.753,1.682,1.684,1.682
	c0.013,0,0.026,0,0.039,0l0,0h1.153h0.257v-7.045c0-0.215,0.172-0.391,0.391-0.391h1.564c0.217,0,0.391,0.176,0.391,0.391v7.438
	v0.314v0.077C97.15,37.367,96.977,37.543,96.76,37.543z M105.451,30.105h-1.645v7.045c0,0.218-0.176,0.393-0.392,0.393h-1.565
	c-0.218,0-0.393-0.175-0.393-0.393v-7.045h-2.35c-0.215,0-0.391-0.174-0.391-0.392v-0.392c0-0.215,0.176-0.391,0.391-0.391h2.742
	h1.565h3.131v0.079C106.546,29.615,106.054,30.105,105.451,30.105z M115.548,37.543h-4.54c-0.049,0-0.1-0.002-0.148-0.004
	c-0.018-0.002-0.031-0.002-0.045-0.002c-0.035-0.004-0.069-0.006-0.103-0.01c-0.021-0.002-0.04-0.005-0.058-0.007
	c-0.029-0.003-0.059-0.007-0.086-0.011c-0.025-0.003-0.049-0.008-0.072-0.012c-0.023-0.006-0.049-0.01-0.072-0.015
	c-0.023-0.004-0.05-0.011-0.076-0.017c-0.02-0.006-0.041-0.01-0.063-0.014c-0.026-0.008-0.056-0.016-0.08-0.024
	c-0.019-0.005-0.04-0.011-0.058-0.017c-0.027-0.008-0.055-0.018-0.084-0.026c-0.016-0.007-0.033-0.013-0.051-0.019
	c-0.029-0.011-0.055-0.021-0.082-0.031c-0.015-0.008-0.035-0.014-0.049-0.021c-0.031-0.012-0.059-0.025-0.09-0.039
	c-0.012-0.007-0.025-0.012-0.039-0.018c-0.031-0.016-0.062-0.032-0.093-0.049c-0.011-0.004-0.022-0.01-0.031-0.016
	c-0.034-0.018-0.067-0.037-0.098-0.056c-0.009-0.005-0.017-0.011-0.025-0.015c-0.032-0.021-0.067-0.041-0.099-0.062
	c-0.006-0.004-0.012-0.008-0.018-0.012c-0.035-0.023-0.067-0.047-0.1-0.072c-0.005-0.002-0.01-0.006-0.014-0.009
	c-0.035-0.026-0.067-0.052-0.1-0.078c-0.004-0.002-0.006-0.005-0.012-0.009c-0.031-0.026-0.064-0.055-0.096-0.084
	c-0.004-0.002-0.006-0.004-0.01-0.008c-0.031-0.029-0.063-0.061-0.097-0.092l-0.002-0.002c-0.524-0.525-0.848-1.25-0.848-2.049
	v-5.324c0-0.215,0.175-0.391,0.391-0.391h1.565c0.216,0,0.391,0.176,0.391,0.391v2.426v0.054v2.845h0.002
	c0,0.014-0.002,0.025-0.002,0.039c0,0.93,0.754,1.682,1.684,1.682c0.013,0,0.026,0,0.039,0l0,0h1.154h0.254v-7.045
	c0-0.215,0.178-0.391,0.393-0.391h1.565c0.216,0,0.392,0.176,0.392,0.391v7.438v0.314v0.077
	C115.939,37.367,115.764,37.543,115.548,37.543z M119.854,30.496v1.176h2.584c1.6,0,2.896,1.297,2.896,2.896v0.078
	c0,1.599-1.297,2.896-2.896,2.896h-3.367h-0.234h-0.234c-0.605,0-1.098-0.489-1.098-1.095v-0.079h1.332h0.234h1.038h1.154v-0.002
	c0.014,0,0.026,0.002,0.04,0.002c0.93,0,1.683-0.753,1.683-1.683c0-0.014-0.001-0.026-0.001-0.039h0.001v-0.078h-0.001
	c0-0.014,0.001-0.026,0.001-0.039c0-0.93-0.753-1.684-1.683-1.684c-0.014,0-0.026,0-0.04,0.002v-0.002h-1.154h-0.646h-0.627h-0.938
	c-0.219,0-0.394-0.176-0.394-0.393v-0.391v-2.348v-0.393c0-0.215,0.175-0.391,0.394-0.391h1.565h1.878
	c0.752,0,3.274-0.142,3.993-0.861C125.334,30.176,121.514,30.383,119.854,30.496z M127.291,35.193c0.65,0,1.174,0.527,1.174,1.175
	c0,0.649-0.523,1.175-1.174,1.175c-0.646,0-1.174-0.525-1.174-1.175C126.117,35.721,126.645,35.193,127.291,35.193z M77.612,35.193
	c0.648,0,1.175,0.527,1.175,1.175c0,0.649-0.527,1.175-1.175,1.175c-0.649,0-1.174-0.525-1.174-1.175
	C76.438,35.721,76.963,35.193,77.612,35.193z M137.077,36.367v0.08c0,0.605-0.49,1.096-1.097,1.096h-3.834
	c-1.602,0-2.896-1.297-2.896-2.896v-2.818c0-1.6,1.295-2.897,2.896-2.897h3.834c0.606,0,1.097,0.492,1.097,1.097v0.078h-1.331
	h-1.271h-1.156v0.004c-0.014-0.002-0.025-0.004-0.038-0.004c-0.917,0-1.66,0.732-1.683,1.644v2.897v0.039
	c0,0.93,0.754,1.682,1.683,1.682c0.013,0,0.024,0,0.038,0l0,0h1.156h1.271H137.077z M143.338,37.543h-1.564
	c-2.163,0-3.914-1.752-3.914-3.914v-0.783c0-2.162,1.751-3.915,3.914-3.915h1.564c2.164,0,3.916,1.753,3.916,3.915v0.783
	C147.254,35.791,145.502,37.543,143.338,37.543z M144.904,32.415c0-1.274-1.033-2.31-2.311-2.31h-0.076
	c-1.275,0-2.311,1.035-2.311,2.31v1.646c0,1.274,1.035,2.307,2.311,2.307h0.076c1.277,0,2.311-1.032,2.311-2.307V32.415z
	 M157.04,37.543h-1.175c-0.217,0-0.391-0.176-0.391-0.392v-4.258c-0.664,1.154-1.26,2.185-1.332,2.3
	c-0.117,0.188-0.269,0.289-0.432,0.342c-0.036,0.031-0.076,0.051-0.117,0.051h-0.236h-0.467h-0.234c-0.045,0-0.081-0.02-0.117-0.051
	c-0.164-0.053-0.314-0.153-0.432-0.342c-0.073-0.115-0.668-1.146-1.332-2.3v4.258c0,0.216-0.174,0.392-0.391,0.392h-1.175
	c-0.216,0-0.392-0.176-0.392-0.392v-7.829c0-0.215,0.176-0.391,0.392-0.391h1.032h0.143c0.152,0,0.282,0.087,0.346,0.213
	c0.026,0.031,0.051,0.066,0.074,0.105c0.107,0.187,1.428,2.526,2.319,4.107c0.894-1.581,2.211-3.921,2.321-4.107
	c0.023-0.041,0.05-0.074,0.074-0.106c0.065-0.125,0.193-0.212,0.346-0.212h0.143h1.029h0.003c0.216,0,0.39,0.176,0.39,0.391v7.829
	C157.43,37.367,157.256,37.543,157.04,37.543z M46.601,28.932h1.173c0.217,0,0.392,0.175,0.392,0.391v4.259
	c0.664-1.153,1.258-2.187,1.331-2.302c0.115-0.186,0.268-0.287,0.432-0.342c0.034-0.03,0.074-0.049,0.115-0.049h0.236h0.468h0.236
	c0.042,0,0.082,0.019,0.115,0.049c0.165,0.055,0.317,0.156,0.433,0.342c0.072,0.115,0.666,1.148,1.329,2.302v-4.259
	c0-0.216,0.176-0.391,0.394-0.391h1.173c0.217,0,0.393,0.175,0.393,0.391v7.828c0,0.217-0.176,0.392-0.393,0.392h-1.03h-0.143
	c-0.152,0-0.283-0.086-0.349-0.212c-0.024-0.031-0.047-0.066-0.071-0.107c-0.109-0.185-1.429-2.526-2.322-4.105
	c-0.891,1.579-2.211,3.921-2.319,4.105c-0.024,0.041-0.048,0.076-0.075,0.108c-0.064,0.125-0.194,0.211-0.345,0.211h-0.144h-1.029
	c-0.217,0-0.393-0.175-0.393-0.392v-7.828C46.208,29.106,46.384,28.932,46.601,28.932z M56.776,28.932h1.175
	c0.215,0,0.39,0.175,0.39,0.391v4.259c0.665-1.153,1.259-2.187,1.332-2.302c0.115-0.186,0.268-0.287,0.432-0.342
	c0.035-0.03,0.075-0.049,0.116-0.049h0.235h0.47h0.234c0.043,0,0.08,0.019,0.116,0.049c0.165,0.055,0.315,0.156,0.432,0.342
	c0.071,0.115,0.667,1.148,1.329,2.302v-4.259c0-0.216,0.178-0.391,0.393-0.391h1.175c0.216,0,0.39,0.175,0.39,0.391v7.828
	c0,0.217-0.174,0.392-0.39,0.392h-1.03H63.43c-0.151,0-0.282-0.086-0.346-0.212c-0.025-0.031-0.049-0.066-0.074-0.107
	c-0.108-0.185-1.428-2.526-2.32-4.105c-0.891,1.579-2.212,3.921-2.32,4.105c-0.023,0.041-0.05,0.076-0.076,0.108
	c-0.064,0.125-0.194,0.211-0.343,0.211h-0.144h-1.031c-0.216,0-0.391-0.175-0.391-0.392v-7.828
	C56.385,29.106,56.56,28.932,56.776,28.932z M66.953,28.932h1.175c0.215,0,0.391,0.175,0.391,0.391v4.259
	c0.664-1.153,1.258-2.187,1.331-2.302c0.115-0.186,0.269-0.287,0.432-0.342c0.035-0.03,0.075-0.049,0.116-0.049h0.235H71.1h0.237
	c0.043,0,0.081,0.019,0.116,0.049c0.163,0.055,0.315,0.156,0.432,0.342c0.071,0.115,0.666,1.148,1.331,2.302v-4.259
	c0-0.216,0.175-0.391,0.391-0.391h1.173c0.218,0,0.393,0.175,0.393,0.391v7.828c0,0.217-0.175,0.392-0.393,0.392h-1.029h-0.144
	c-0.151,0-0.281-0.086-0.346-0.212c-0.025-0.031-0.05-0.066-0.075-0.107c-0.105-0.185-1.427-2.526-2.319-4.105
	c-0.891,1.579-2.21,3.921-2.32,4.105c-0.024,0.041-0.05,0.076-0.073,0.108c-0.066,0.125-0.196,0.211-0.346,0.211h-0.146h-1.028
	h-0.001c-0.216,0-0.391-0.175-0.391-0.392v-7.828C66.562,29.106,66.737,28.932,66.953,28.932z"/>
</svg>
